<svg xmlns="http://www.w3.org/2000/svg" viewBox="0 0 512 512"><path d="M475.733 503.467H36.267c-15.317 0-27.733-12.416-27.733-27.733v-364.8h494.933v364.8c0 15.317-12.416 27.733-27.734 27.733z" fill="#ecf0f1"/><path d="M503.467 110.933H8.533V36.267c0-15.317 12.416-27.733 27.733-27.733h439.467c15.317 0 27.733 12.416 27.733 27.733v74.666z" fill="#687492"/><path fill="#e64c3c" d="M42.667 42.667H76.8V76.8H42.667z"/><path fill="#f0c419" d="M110.933 42.667h34.133V76.8h-34.133z"/><path fill="#24ae5f" d="M179.2 42.667h34.133V76.8H179.2z"/><path fill="#e64c3c" d="M51.2 153.6h102.4V256H51.2z"/><path fill="#4482c3" d="M51.2 290.133h102.4V460.8H51.2z"/><path fill="#af8066" d="M358.4 358.4h102.4v102.4H358.4z"/><path fill="#f29c1f" d="M358.4 153.6h102.4v170.667H358.4z"/><path fill="#f0c419" d="M204.8 153.6h102.4v68.267H204.8z"/><path fill="#8697cb" d="M204.8 392.533h102.4V460.8H204.8z"/><path fill="#24ae5f" d="M204.8 256h102.4v102.4H204.8z"/><g fill="#611c90"><path d="M473.6 512H38.4C17.229 512 0 494.771 0 473.6V38.4C0 17.229 17.229 0 38.4 0h435.2C494.771 0 512 17.229 512 38.4v435.2c0 21.171-17.229 38.4-38.4 38.4zM38.4 17.067c-11.759 0-21.333 9.574-21.333 21.333v435.2c0 11.767 9.574 21.333 21.333 21.333h435.2c11.767 0 21.333-9.566 21.333-21.333V38.4c0-11.759-9.566-21.333-21.333-21.333H38.4z"/><path d="M76.8 85.333H42.667a8.536 8.536 0 01-8.533-8.533V42.667a8.536 8.536 0 018.533-8.533H76.8a8.536 8.536 0 018.533 8.533V76.8a8.536 8.536 0 01-8.533 8.533zM51.2 68.267h17.067V51.2H51.2v17.067zM145.067 85.333h-34.133a8.536 8.536 0 01-8.533-8.533V42.667a8.536 8.536 0 018.533-8.533h34.133a8.536 8.536 0 018.533 8.533V76.8a8.536 8.536 0 01-8.533 8.533zm-25.6-17.066h17.067V51.2h-17.067v17.067zM213.333 85.333H179.2a8.536 8.536 0 01-8.533-8.533V42.667a8.536 8.536 0 018.533-8.533h34.133a8.536 8.536 0 018.533 8.533V76.8c.001 4.71-3.822 8.533-8.533 8.533zm-25.6-17.066H204.8V51.2h-17.067v17.067z"/><path d="M503.467 119.467H8.533A8.536 8.536 0 010 110.934V38.4C0 17.229 17.229 0 38.4 0h435.2C494.771 0 512 17.229 512 38.4v72.533a8.53 8.53 0 01-8.533 8.534zM17.067 102.4h477.867v-64c0-11.759-9.566-21.333-21.333-21.333H38.4c-11.759 0-21.333 9.574-21.333 21.333v64zM153.6 264.533H51.2A8.536 8.536 0 0142.667 256V153.6a8.536 8.536 0 018.533-8.533h102.4a8.536 8.536 0 018.533 8.533V256a8.536 8.536 0 01-8.533 8.533zm-93.867-17.066h85.333v-85.333H59.733v85.333zM153.6 469.333H51.2a8.53 8.53 0 01-8.533-8.533V290.133A8.53 8.53 0 0151.2 281.6h102.4a8.53 8.53 0 018.533 8.533V460.8a8.53 8.53 0 01-8.533 8.533zm-93.867-17.066h85.333v-153.6H59.733v153.6zM460.8 469.333H358.4a8.525 8.525 0 01-8.533-8.533V358.4a8.525 8.525 0 018.533-8.533h102.4a8.525 8.525 0 018.533 8.533v102.4a8.525 8.525 0 01-8.533 8.533zm-93.867-17.066h85.333v-85.333h-85.333v85.333zM460.8 332.8H358.4a8.525 8.525 0 01-8.533-8.533V153.6a8.53 8.53 0 018.533-8.533h102.4a8.53 8.53 0 018.533 8.533v170.667a8.525 8.525 0 01-8.533 8.533zm-93.867-17.067h85.333v-153.6h-85.333v153.6zM307.2 230.4H204.8a8.536 8.536 0 01-8.533-8.533V153.6a8.536 8.536 0 018.533-8.533h102.4a8.53 8.53 0 018.533 8.533v68.267a8.53 8.53 0 01-8.533 8.533zm-93.867-17.067h85.333v-51.2h-85.333v51.2zM307.2 469.333H204.8a8.53 8.53 0 01-8.533-8.533v-68.267A8.53 8.53 0 01204.8 384h102.4a8.525 8.525 0 018.533 8.533V460.8a8.525 8.525 0 01-8.533 8.533zm-93.867-17.066h85.333v-51.2h-85.333v51.2zM307.2 366.933H204.8a8.53 8.53 0 01-8.533-8.533V256a8.536 8.536 0 018.533-8.533h102.4a8.53 8.53 0 018.533 8.533v102.4a8.525 8.525 0 01-8.533 8.533zm-93.867-17.066h85.333v-85.333h-85.333v85.333z"/></g></svg>