<?xml version="1.0" encoding="iso-8859-1"?>
<!-- Generator: Adobe Illustrator 19.0.0, SVG Export Plug-In . SVG Version: 6.00 Build 0)  -->
<svg version="1.1" id="Capa_1" xmlns="http://www.w3.org/2000/svg" xmlns:xlink="http://www.w3.org/1999/xlink" x="0px" y="0px"
	 viewBox="0 0 512 512" style="enable-background:new 0 0 512 512;" xml:space="preserve">
<path style="fill:#ECF0F1;" d="M475.733,503.467H36.267c-15.317,0-27.733-12.416-27.733-27.733v-364.8h494.933v364.8
	C503.467,491.051,491.051,503.467,475.733,503.467z"/>
<path style="fill:#687492;" d="M503.467,110.933H8.533V36.267c0-15.317,12.416-27.733,27.733-27.733h439.467
	c15.317,0,27.733,12.416,27.733,27.733V110.933z"/>
<rect x="42.667" y="42.667" style="fill:#E64C3C;" width="34.133" height="34.133"/>
<rect x="110.933" y="42.667" style="fill:#F0C419;" width="34.133" height="34.133"/>
<rect x="179.2" y="42.667" style="fill:#24AE5F;" width="34.133" height="34.133"/>
<rect x="51.2" y="153.6" style="fill:#E64C3C;" width="102.4" height="102.4"/>
<rect x="51.2" y="290.133" style="fill:#4482C3;" width="102.4" height="170.667"/>
<rect x="358.4" y="358.4" style="fill:#AF8066;" width="102.4" height="102.4"/>
<rect x="358.4" y="153.6" style="fill:#F29C1F;" width="102.4" height="170.667"/>
<rect x="204.8" y="153.6" style="fill:#F0C419;" width="102.4" height="68.267"/>
<rect x="204.8" y="392.533" style="fill:#8697CB;" width="102.4" height="68.267"/>
<rect x="204.8" y="256" style="fill:#24AE5F;" width="102.4" height="102.4"/>
<g>
	<path style="fill:#611C90;" d="M473.6,512H38.4C17.229,512,0,494.771,0,473.6V38.4C0,17.229,17.229,0,38.4,0h435.2
		C494.771,0,512,17.229,512,38.4v435.2C512,494.771,494.771,512,473.6,512z M38.4,17.067c-11.759,0-21.333,9.574-21.333,21.333
		v435.2c0,11.767,9.574,21.333,21.333,21.333h435.2c11.767,0,21.333-9.566,21.333-21.333V38.4c0-11.759-9.566-21.333-21.333-21.333
		H38.4z"/>
	<path style="fill:#611C90;" d="M76.8,85.333H42.667c-4.71,0-8.533-3.823-8.533-8.533V42.667c0-4.71,3.823-8.533,8.533-8.533H76.8
		c4.71,0,8.533,3.823,8.533,8.533V76.8C85.333,81.51,81.51,85.333,76.8,85.333z M51.2,68.267h17.067V51.2H51.2V68.267z"/>
	<path style="fill:#611C90;" d="M145.067,85.333h-34.133c-4.71,0-8.533-3.823-8.533-8.533V42.667c0-4.71,3.823-8.533,8.533-8.533
		h34.133c4.71,0,8.533,3.823,8.533,8.533V76.8C153.6,81.51,149.777,85.333,145.067,85.333z M119.467,68.267h17.067V51.2h-17.067
		V68.267z"/>
	<path style="fill:#611C90;" d="M213.333,85.333H179.2c-4.71,0-8.533-3.823-8.533-8.533V42.667c0-4.71,3.823-8.533,8.533-8.533
		h34.133c4.71,0,8.533,3.823,8.533,8.533V76.8C221.867,81.51,218.044,85.333,213.333,85.333z M187.733,68.267H204.8V51.2h-17.067
		V68.267z"/>
	<path style="fill:#611C90;" d="M503.467,119.467H8.533c-4.71,0-8.533-3.823-8.533-8.533V38.4C0,17.229,17.229,0,38.4,0h435.2
		C494.771,0,512,17.229,512,38.4v72.533C512,115.644,508.186,119.467,503.467,119.467z M17.067,102.4h477.867v-64
		c0-11.759-9.566-21.333-21.333-21.333H38.4c-11.759,0-21.333,9.574-21.333,21.333V102.4z"/>
	<path style="fill:#611C90;" d="M153.6,264.533H51.2c-4.71,0-8.533-3.823-8.533-8.533V153.6c0-4.71,3.823-8.533,8.533-8.533h102.4
		c4.71,0,8.533,3.823,8.533,8.533V256C162.133,260.71,158.31,264.533,153.6,264.533z M59.733,247.467h85.333v-85.333H59.733V247.467
		z"/>
	<path style="fill:#611C90;" d="M153.6,469.333H51.2c-4.71,0-8.533-3.814-8.533-8.533V290.133c0-4.719,3.823-8.533,8.533-8.533
		h102.4c4.71,0,8.533,3.814,8.533,8.533V460.8C162.133,465.519,158.31,469.333,153.6,469.333z M59.733,452.267h85.333v-153.6H59.733
		V452.267z"/>
	<path style="fill:#611C90;" d="M460.8,469.333H358.4c-4.719,0-8.533-3.814-8.533-8.533V358.4c0-4.719,3.814-8.533,8.533-8.533
		h102.4c4.719,0,8.533,3.814,8.533,8.533v102.4C469.333,465.519,465.519,469.333,460.8,469.333z M366.933,452.267h85.333v-85.333
		h-85.333V452.267z"/>
	<path style="fill:#611C90;" d="M460.8,332.8H358.4c-4.719,0-8.533-3.814-8.533-8.533V153.6c0-4.71,3.814-8.533,8.533-8.533h102.4
		c4.719,0,8.533,3.823,8.533,8.533v170.667C469.333,328.986,465.519,332.8,460.8,332.8z M366.933,315.733h85.333v-153.6h-85.333
		V315.733z"/>
	<path style="fill:#611C90;" d="M307.2,230.4H204.8c-4.71,0-8.533-3.823-8.533-8.533V153.6c0-4.71,3.823-8.533,8.533-8.533h102.4
		c4.719,0,8.533,3.823,8.533,8.533v68.267C315.733,226.577,311.919,230.4,307.2,230.4z M213.333,213.333h85.333v-51.2h-85.333
		V213.333z"/>
	<path style="fill:#611C90;" d="M307.2,469.333H204.8c-4.71,0-8.533-3.814-8.533-8.533v-68.267c0-4.719,3.823-8.533,8.533-8.533
		h102.4c4.719,0,8.533,3.814,8.533,8.533V460.8C315.733,465.519,311.919,469.333,307.2,469.333z M213.333,452.267h85.333v-51.2
		h-85.333V452.267z"/>
	<path style="fill:#611C90;" d="M307.2,366.933H204.8c-4.71,0-8.533-3.814-8.533-8.533V256c0-4.71,3.823-8.533,8.533-8.533h102.4
		c4.719,0,8.533,3.823,8.533,8.533v102.4C315.733,363.119,311.919,366.933,307.2,366.933z M213.333,349.867h85.333v-85.333h-85.333
		V349.867z"/>
</g>
<g>
</g>
<g>
</g>
<g>
</g>
<g>
</g>
<g>
</g>
<g>
</g>
<g>
</g>
<g>
</g>
<g>
</g>
<g>
</g>
<g>
</g>
<g>
</g>
<g>
</g>
<g>
</g>
<g>
</g>
</svg>
