<?xml version="1.0" encoding="iso-8859-1"?>
<!-- Generator: Adobe Illustrator 19.0.0, SVG Export Plug-In . SVG Version: 6.00 Build 0)  -->
<svg version="1.1" id="Capa_1" xmlns="http://www.w3.org/2000/svg" xmlns:xlink="http://www.w3.org/1999/xlink" x="0px" y="0px"
	 viewBox="0 0 512 512" style="enable-background:new 0 0 512 512;" xml:space="preserve">
<path style="fill:#ECF0F1;" d="M483.31,512H28.69C12.844,512,0,499.156,0,483.31V105.931h512V483.31
	C512,499.156,499.156,512,483.31,512z"/>
<path style="fill:#687492;" d="M512,105.931H0V28.69C0,12.844,12.844,0,28.69,0H483.31C499.156,0,512,12.844,512,28.69V105.931z"/>
<rect x="35.31" y="35.31" style="fill:#E64C3C;" width="35.31" height="35.31"/>
<rect x="105.931" y="35.31" style="fill:#F0C419;" width="35.31" height="35.31"/>
<rect x="176.552" y="35.31" style="fill:#24AE5F;" width="35.31" height="35.31"/>
<rect x="247.172" y="105.931" style="fill:#BDC3C7;" width="17.655" height="406.069"/>
<path style="fill:#FF5364;" d="M128,300.138c-46.239,0-83.862-37.623-83.862-83.862S81.761,132.414,128,132.414
	s83.862,37.623,83.862,83.862S174.239,300.138,128,300.138z M128,150.069c-36.502,0-66.207,29.696-66.207,66.207
	S91.498,282.483,128,282.483s66.207-29.696,66.207-66.207S164.502,150.069,128,150.069z"/>
<path style="fill:#FB7B76;" d="M128,485.517c-46.239,0-83.862-37.623-83.862-83.862S81.761,317.793,128,317.793
	s83.862,37.623,83.862,83.862S174.239,485.517,128,485.517z M128,335.448c-36.502,0-66.207,29.696-66.207,66.207
	S91.498,467.862,128,467.862s66.207-29.696,66.207-66.207S164.502,335.448,128,335.448z"/>
<path style="fill:#F0C419;" d="M326.621,300.138h-35.31c-4.873,0-8.828-3.946-8.828-8.828v-97.103c0-4.882,3.955-8.828,8.828-8.828
	h35.31c4.873,0,8.828,3.946,8.828,8.828v97.103C335.448,296.192,331.493,300.138,326.621,300.138z"/>
<path style="fill:#24AE5F;" d="M406.069,300.138h-44.138c-4.873,0-8.828-3.946-8.828-8.828V220.69c0-4.882,3.955-8.828,8.828-8.828
	h44.138c4.873,0,8.828,3.946,8.828,8.828v70.621C414.897,296.192,410.942,300.138,406.069,300.138z"/>
<path style="fill:#4482C3;" d="M476.69,300.138h-35.31c-4.873,0-8.828-3.946-8.828-8.828V167.724c0-4.882,3.955-8.828,8.828-8.828
	h35.31c4.873,0,8.828,3.946,8.828,8.828V291.31C485.517,296.192,481.562,300.138,476.69,300.138z"/>
<g>
	<path style="fill:#BDC3C7;" d="M459.034,459.034H308.966c-4.873,0-8.828-3.946-8.828-8.828c0-4.882,3.955-8.828,8.828-8.828
		h150.069c4.873,0,8.828,3.946,8.828,8.828C467.862,455.089,463.907,459.034,459.034,459.034z"/>
	<path style="fill:#BDC3C7;" d="M476.69,423.724H291.31c-4.873,0-8.828-3.946-8.828-8.828c0-4.882,3.955-8.828,8.828-8.828H476.69
		c4.873,0,8.828,3.946,8.828,8.828C485.517,419.778,481.562,423.724,476.69,423.724z"/>
	<path style="fill:#BDC3C7;" d="M459.034,388.414H308.966c-4.873,0-8.828-3.946-8.828-8.828c0-4.882,3.955-8.828,8.828-8.828
		h150.069c4.873,0,8.828,3.946,8.828,8.828C467.862,384.468,463.907,388.414,459.034,388.414z"/>
	<path style="fill:#BDC3C7;" d="M441.379,353.103H326.621c-4.873,0-8.828-3.946-8.828-8.828c0-4.882,3.955-8.828,8.828-8.828
		h114.759c4.873,0,8.828,3.946,8.828,8.828C450.207,349.158,446.252,353.103,441.379,353.103z"/>
</g>
<g>
</g>
<g>
</g>
<g>
</g>
<g>
</g>
<g>
</g>
<g>
</g>
<g>
</g>
<g>
</g>
<g>
</g>
<g>
</g>
<g>
</g>
<g>
</g>
<g>
</g>
<g>
</g>
<g>
</g>
</svg>
